<svg width="64" height="64" viewBox="0 0 64 64" fill="none" xmlns="http://www.w3.org/2000/svg">
<rect x="1" y="1" width="62" height="62" rx="10" fill="#1A1512"/>
<path d="M30.3348 45.333C27.4083 45.3419 24.5853 44.2505 22.4257 42.2754C20.2661 40.3002 18.9278 37.5856 18.6761 34.6699C18.4244 31.7541 19.2777 28.8503 21.0668 26.5342C22.8559 24.2182 25.4501 22.6592 28.3348 22.1663C37.8348 20.333 40.3348 19.4663 43.6682 15.333C45.3348 18.6663 47.0015 22.2997 47.0015 28.6663C47.0015 37.833 39.0348 45.333 30.3348 45.333Z" stroke="#F39C12" stroke-width="3" stroke-linecap="round" stroke-linejoin="round"/>
<path d="M15.332 47C15.332 42 18.4154 38.0667 23.7987 37C27.832 36.2 31.9987 33.6667 33.6654 32" stroke="#F39C12" stroke-width="3" stroke-linecap="round" stroke-linejoin="round"/>
</svg>
